<?xml version="1.0" standalone="no"?>
<!DOCTYPE svg PUBLIC "-//W3C//DTD SVG 20010904//EN"
 "http://www.w3.org/TR/2001/REC-SVG-20010904/DTD/svg10.dtd">
<svg version="1.0" xmlns="http://www.w3.org/2000/svg"
 width="200.000000pt" height="200.000000pt" viewBox="0 0 200.000000 200.000000"
 preserveAspectRatio="xMidYMid meet">

<g transform="translate(0.000000,200.000000) scale(0.100000,-0.100000)"
fill="#000000" stroke="none">
<path d="M707 1225 c-8 -8 -17 -12 -21 -10 -3 3 -4 2 -1 -2 3 -4 -23 -36 -57
-72 -59 -61 -59 -62 -7 -13 30 29 58 50 61 46 4 -3 11 4 18 15 6 12 15 19 21
16 5 -4 9 3 9 14 0 25 -4 26 -23 6z"/>
<path d="M915 1196 c-10 -14 -20 -49 -24 -78 -5 -45 -10 -53 -34 -61 -21 -7
-34 -5 -53 8 -23 15 -25 22 -20 53 8 53 53 82 63 42 3 -11 12 -20 19 -20 17 0
18 32 2 48 -34 34 -105 -9 -115 -70 -4 -30 -1 -41 20 -62 22 -22 33 -25 81
-23 52 2 57 4 68 32 l12 30 3 -31 4 -31 62 2 c34 0 68 5 75 9 7 4 19 2 28 -5
11 -9 21 -9 38 -1 17 8 27 7 36 -1 9 -9 15 -7 27 11 19 27 40 29 48 3 5 -15
15 -18 70 -17 36 1 69 6 76 13 18 18 3 28 -17 12 -16 -13 -17 -11 -10 24 6 34
5 37 -16 37 -31 0 -45 -10 -59 -45 l-13 -30 -4 38 c-3 35 -22 54 -22 22 0 -8
-4 -15 -10 -15 -5 0 -10 7 -10 15 0 28 -28 15 -36 -17 l-8 -33 -3 33 c-4 34
-23 45 -23 14 0 -11 -9 -27 -21 -38 -17 -16 -22 -16 -30 -4 -15 24 -6 45 20
48 16 3 20 6 12 11 -9 6 -9 15 -1 35 21 57 -22 64 -48 9 -9 -21 -20 -39 -24
-41 -4 -2 -2 -12 4 -22 9 -14 9 -22 -1 -34 -19 -22 -28 -12 -23 24 4 27 2 30
-22 30 -20 0 -32 -9 -47 -35 -12 -19 -23 -35 -26 -35 -3 0 -2 16 1 35 8 40 -5
46 -37 18 -15 -13 -12 -7 7 24 28 41 32 83 9 90 -6 2 -19 -7 -28 -21z m25 -14
c0 -10 -7 -27 -15 -38 -13 -17 -14 -16 -5 16 6 19 10 36 10 37 0 2 2 3 5 3 3
0 5 -8 5 -18z m200 -9 c0 -5 -5 -15 -10 -23 -8 -12 -10 -11 -10 8 0 12 5 22
10 22 6 0 10 -3 10 -7z m-107 -93 c-3 -11 -9 -23 -14 -26 -10 -6 -12 29 -2 39
13 13 21 7 16 -13z m313 -16 c-3 -8 -10 -12 -16 -9 -7 4 -6 14 2 28 12 24 24
8 14 -19z"/>
<path d="M1265 1159 c-10 -15 1 -23 20 -15 9 3 13 10 10 16 -8 13 -22 13 -30
-1z"/>
<path d="M701 1094 c0 -11 3 -14 6 -6 3 7 2 16 -1 19 -3 4 -6 -2 -5 -13z"/>
<path d="M626 1053 c-6 -14 -5 -15 5 -6 7 7 10 15 7 18 -3 3 -9 -2 -12 -12z"/>
<path d="M595 1040 c-4 -6 -3 -16 3 -22 13 -13 23 4 13 21 -7 10 -10 10 -16 1z"/>
</g>
</svg>
